<svg width="69" height="69" viewBox="0 0 69 69" fill="none" xmlns="http://www.w3.org/2000/svg">
<path d="M34.5 69C29.6226 69 25.2799 66.2874 23.0848 62.0612C18.5394 63.4929 13.5499 62.3415 10.1042 58.8958C6.6585 55.4501 5.50275 50.4606 6.93881 45.9152C2.71256 43.7201 0 39.3774 0 34.5C0 29.6226 2.71256 25.2799 6.93881 23.0848C5.50275 18.5394 6.6585 13.5542 10.1042 10.1042C13.5542 6.6585 18.5438 5.50706 23.0848 6.93881C25.2799 2.71256 29.6226 0 34.5 0C39.3774 0 43.7201 2.71256 45.9152 6.93881C50.4649 5.50275 55.4458 6.6585 58.8958 10.1042C62.3415 13.5499 63.4972 18.5394 62.0612 23.0848C66.2874 25.2799 69 29.6226 69 34.5C69 39.3774 66.2874 43.7201 62.0612 45.9152C63.4972 50.4606 62.3415 55.4458 58.8958 58.8958C55.4544 62.3415 50.4606 63.4972 45.9152 62.0612C43.7201 66.2874 39.3774 69 34.5 69Z" fill="black"/>
<g clip-path="url(#clip0_1_481)">
<path d="M45.8083 34.0353L39.2176 27.4445C38.9808 27.168 38.5647 27.1358 38.2883 27.3726C38.0118 27.6094 37.9796 28.0255 38.2164 28.3019C38.2385 28.3277 38.2625 28.3518 38.2883 28.3738L43.752 33.8442H17.6591C17.2951 33.8442 17 34.1392 17 34.5033C17 34.8673 17.2951 35.1623 17.6591 35.1623H43.752L38.2883 40.6261C38.0118 40.8628 37.9796 41.2789 38.2164 41.5554C38.4532 41.8318 38.8692 41.864 39.1457 41.6272C39.1715 41.6051 39.1955 41.5811 39.2176 41.5554L45.8084 34.9645C46.0639 34.7076 46.0639 34.2924 45.8083 34.0353Z" fill="white"/>
</g>
<defs>
<clipPath id="clip0_1_481">
<rect width="29" height="29" fill="white" transform="translate(17 20)"/>
</clipPath>
</defs>
</svg>
