<svg width="232" height="232" viewBox="0 0 232 232" fill="none" xmlns="http://www.w3.org/2000/svg">
<path d="M116 232C99.6005 232 84.999 222.88 77.6185 208.669C62.3355 213.483 45.559 209.612 33.9735 198.026C22.388 186.441 18.502 169.665 23.3305 154.382C9.1205 147.001 0 132.4 0 116C0 99.6005 9.1205 84.999 23.3305 77.6185C18.502 62.3355 22.388 45.5735 33.9735 33.9735C45.5735 22.388 62.35 18.5165 77.6185 23.3305C84.999 9.1205 99.6005 0 116 0C132.4 0 147.001 9.1205 154.382 23.3305C169.679 18.502 186.426 22.388 198.026 33.9735C209.612 45.559 213.498 62.3355 208.669 77.6185C222.88 84.999 232 99.6005 232 116C232 132.4 222.88 147.001 208.669 154.382C213.498 169.665 209.612 186.426 198.026 198.026C186.455 209.612 169.665 213.498 154.382 208.669C147.001 222.88 132.4 232 116 232Z" fill="#7571FF"/>
<g clip-path="url(#clip0_1_59)">
<path d="M142.749 98.7158L118.975 97.5943C118.052 97.479 117.211 98.1332 117.096 99.0556C116.981 99.9778 117.635 100.819 118.557 100.934C118.643 100.945 118.73 100.949 118.816 100.946L138.537 101.889L89.2554 146.73C88.568 147.356 88.5178 148.42 89.1434 149.108C89.769 149.795 90.8333 149.845 91.5207 149.22L140.802 104.378L139.872 124.087C139.757 125.009 140.411 125.851 141.334 125.966C142.256 126.081 143.097 125.427 143.212 124.504C143.223 124.418 143.227 124.332 143.225 124.245L144.346 100.471C144.387 99.5463 143.673 98.7622 142.749 98.7158Z" fill="white"/>
</g>
<defs>
<clipPath id="clip0_1_59">
<rect width="74.0521" height="74.0521" fill="white" transform="translate(65.7858 137.126) rotate(-59.3109)"/>
</clipPath>
</defs>
</svg>
