<svg width="50" height="50" viewBox="0 0 50 50" fill="none" xmlns="http://www.w3.org/2000/svg">
<g clip-path="url(#clip0_1_381)">
<path fill-rule="evenodd" clip-rule="evenodd" d="M25 0C38.8076 0 50 11.1924 50 25C50 38.8076 38.8076 50 25 50C11.1924 50 0 38.8076 0 25C0 11.1924 11.1924 0 25 0Z" fill="url(#paint0_linear_1_381)"/>
<path fill-rule="evenodd" clip-rule="evenodd" d="M28.8008 24.1367C28.4678 23.3682 28.1211 22.6016 27.752 21.8428C30.9062 20.4766 33.4414 18.6211 35.3301 16.2686C37.1728 18.4453 38.3291 21.21 38.5 24.2373C34.9834 23.6611 31.749 23.6289 28.8008 24.1367ZM32.5146 36.2529C31.916 33.04 31.0391 29.8994 29.8926 26.835C32.4541 26.4727 35.2734 26.5664 38.3574 27.1025C37.7617 30.9082 35.5898 34.1943 32.5146 36.2529ZM16.6914 35.667C19.3809 31.4482 22.8135 28.7031 27.0674 27.4355C28.334 30.7402 29.2656 34.1406 29.8584 37.623C25.4268 39.3359 20.4482 38.5996 16.6914 35.667ZM11.4805 24.6514C16.7354 24.6436 21.2695 24.04 25.0674 22.8447C25.3857 23.4932 25.6904 24.1445 25.9824 24.8008C21.3682 26.2422 17.5645 29.1992 14.5977 33.6504C12.4619 31.0869 11.3994 27.9785 11.4805 24.6514ZM18.8926 12.9336C20.7109 15.3135 22.3213 17.7666 23.7227 20.2832C20.4023 21.2607 16.4424 21.7627 11.8613 21.7939C12.8076 17.9219 15.415 14.7021 18.8926 12.9336ZM33.2529 14.292C31.6084 16.4141 29.3369 18.0918 26.4424 19.3174C25.0557 16.7764 23.4707 14.2979 21.6797 11.8916C25.7344 10.8584 29.9268 11.7236 33.2529 14.292ZM25 8.61133C15.9492 8.61133 8.61133 15.9492 8.61133 25C8.61133 34.0508 15.9492 41.3887 25 41.3887C34.0508 41.3887 41.3887 34.0508 41.3887 25C41.3887 15.9492 34.0508 8.61133 25 8.61133Z" fill="white"/>
</g>
<defs>
<linearGradient id="paint0_linear_1_381" x1="6.62402" y1="8.04883" x2="46.3076" y2="38.084" gradientUnits="userSpaceOnUse">
<stop stop-color="#D31F61"/>
<stop offset="1" stop-color="#E9568C"/>
</linearGradient>
<clipPath id="clip0_1_381">
<rect width="50" height="50" fill="white"/>
</clipPath>
</defs>
</svg>
