<svg width="71" height="71" viewBox="0 0 71 71" fill="none" xmlns="http://www.w3.org/2000/svg">
<g clip-path="url(#clip0_1_471)">
<path d="M11.8332 23.667C5.30041 23.667 0 18.3686 0 11.8332C0 5.2977 5.30041 0 11.8332 0C18.3679 0 23.6663 5.29838 23.6663 11.8332C23.6663 18.3679 28.9654 23.667 35.5001 23.667C42.0349 23.667 47.3333 18.3686 47.3333 11.8338C47.3333 5.29905 52.6323 0 59.1671 0C65.7019 0 71.0003 5.29838 71.0003 11.8332C71.0003 18.3679 65.7019 23.6663 59.1671 23.6663C39.5587 23.6663 23.667 39.5648 23.667 59.1658C23.667 65.6972 18.3686 70.9989 11.8338 70.9989C5.29905 70.9989 0 65.7019 0 59.1671C0 52.6323 5.29838 47.3333 11.8332 47.3333C18.3679 47.3333 23.6649 42.0349 23.6649 35.5001C23.6649 28.9654 18.3686 23.667 11.8332 23.667Z" fill="black"/>
<path d="M32.5418 51.7703C32.5418 41.1445 41.1492 32.5411 51.7717 32.5411C62.3942 32.5418 71.0003 41.1445 71.0003 51.7703C71.0003 62.3915 62.3942 71.0002 51.7704 71.0002C41.1479 71.0002 32.5418 62.3915 32.5418 51.7703Z" fill="#F5BEF3"/>
</g>
<defs>
<clipPath id="clip0_1_471">
<rect width="71" height="71" fill="white"/>
</clipPath>
</defs>
</svg>
