<svg width="90" height="90" viewBox="0 0 90 90" fill="none" xmlns="http://www.w3.org/2000/svg">
<g clip-path="url(#clip0_1_496)">
<path d="M44.9846 68.0961L35.5521 61.1421C34.9439 60.6921 34.2232 60.4548 33.4691 60.4548C32.9294 60.4548 32.3896 60.5814 31.9062 60.8187C31.4 61.0683 30.9728 61.4269 30.6371 61.8839C30.0798 62.6398 29.8495 63.5679 29.9902 64.4961C30.1308 65.4242 30.623 66.2416 31.3771 66.7988C31.3789 66.8006 31.3789 66.8006 31.3789 66.8006L32.208 67.4118C30.1473 67.4016 28.2752 67.3898 26.7136 67.3789C25.4341 67.3701 24.1348 67.3596 22.85 67.349V47.4012C22.85 45.4623 21.2733 43.8855 19.3344 43.8855C17.3955 43.8855 15.8187 45.4623 15.8187 47.4012V70.833C15.8187 71.7664 16.1791 72.6453 16.8348 73.308C17.4887 73.969 18.3639 74.3381 19.2975 74.3487H19.3166C20.1291 74.3568 25.2423 74.4076 31.8459 74.4413L31.3017 74.8266C30.5353 75.368 30.0253 76.1767 29.8673 77.103C29.7073 78.0276 29.92 78.9593 30.4614 79.7257C31.1206 80.6556 32.1947 81.2111 33.3355 81.2111C34.065 81.2111 34.7648 80.9878 35.3623 80.566L44.9284 73.7966C45.8477 73.1462 46.4015 72.0862 46.4138 70.9612C46.4241 69.8346 45.8897 68.7641 44.9846 68.0961Z" fill="#80B6FF"/>
<path d="M73.1627 16.574C72.5087 15.9113 71.6333 15.5422 70.6999 15.5316H70.6806C69.8681 15.5235 64.7553 15.4734 58.1518 15.4402L58.6957 15.0553C59.4621 14.5121 59.9719 13.7035 60.1301 12.7789C60.2881 11.8525 60.0774 10.9208 59.536 10.1544C58.8768 9.22454 57.8027 8.66907 56.6617 8.66907C55.9324 8.66907 55.2326 8.89231 54.635 9.31595L45.0688 16.0854C44.1497 16.734 43.5958 17.794 43.5837 18.9207C43.5729 20.0457 44.1073 21.1163 45.0128 21.7842L54.4453 28.74C55.0535 29.1882 55.7742 29.4255 56.5283 29.4255C57.068 29.4255 57.6076 29.3007 58.091 29.0616C58.5955 28.812 59.0246 28.4534 59.3604 27.9964C59.9176 27.2405 60.1477 26.3124 60.0072 25.3843C59.8684 24.4561 59.3744 23.6387 58.6203 23.0815C58.6184 23.0815 58.6184 23.0815 58.6184 23.0798L57.7899 22.4691C59.8515 22.4789 61.7227 22.4905 63.2837 22.5014C64.66 22.512 65.9608 22.5208 67.1474 22.5313V42.4809C67.1474 44.418 68.7241 45.9966 70.663 45.9966C72.6019 45.9966 74.1787 44.418 74.1787 42.4809V19.0473C74.1787 18.1139 73.8183 17.235 73.1627 16.574Z" fill="#BFDBFF"/>
<path d="M31.6391 36.9139H7.02953C4.11698 36.9139 1.75604 34.553 1.75604 31.6404V7.03081C1.75604 4.11827 4.11698 1.75732 7.02953 1.75732H31.6391C34.5517 1.75732 36.9126 4.11827 36.9126 7.03081V31.6404C36.9126 34.553 34.5515 36.9139 31.6391 36.9139Z" fill="#FFE6B4"/>
<path d="M70.663 88.2425C80.3712 88.2425 88.2413 80.3725 88.2413 70.6642C88.2413 60.956 80.3712 53.0859 70.663 53.0859C60.9548 53.0859 53.0847 60.956 53.0847 70.6642C53.0847 80.3725 60.9548 88.2425 70.663 88.2425Z" fill="#D1AEE5"/>
<path d="M46.0168 66.6818C46.0166 66.6818 46.0164 66.6816 46.0163 66.6814L36.586 59.729C35.6736 59.0538 34.5918 58.6972 33.4576 58.6972C32.6531 58.6972 31.845 58.8851 31.1174 59.2423C30.3558 59.6179 29.7136 60.1565 29.2109 60.8412C28.3742 61.9759 28.0298 63.3677 28.2409 64.7596C28.2863 65.0589 28.3561 65.3509 28.449 65.633C27.8368 65.6292 25.3045 65.6112 24.5964 65.6056V47.4012C24.5964 44.4934 22.2307 42.1277 19.3229 42.1277C16.4151 42.1277 14.0494 44.4934 14.0494 47.4012V70.8332C14.0494 72.233 14.5908 73.551 15.5737 74.5445C16.5545 75.5359 17.8657 76.0905 19.266 76.1065C19.2727 76.1067 19.2793 76.1067 19.286 76.1067H19.2911C20.7039 76.1206 24.0017 76.1515 28.2694 76.1788C28.2088 76.3825 28.1601 76.5912 28.1239 76.8037C27.8839 78.1897 28.2003 79.5879 29.016 80.7426C30.0044 82.1369 31.6149 82.9693 33.324 82.9693C34.4172 82.9693 35.4688 82.6349 36.3663 82.0011L45.9322 75.2318C47.3088 74.258 48.1417 72.6687 48.1601 70.9777C48.1756 69.2895 47.3744 67.6835 46.0168 66.6818ZM43.9014 72.3618L34.3367 79.1302C34.037 79.3418 33.6869 79.4536 33.3239 79.4536C32.7526 79.4536 32.2143 79.1754 31.8856 78.7118C31.614 78.3274 31.5084 77.8626 31.5885 77.3991C31.6675 76.9364 31.9216 76.533 32.3059 76.2614L32.8503 75.8763C33.4736 75.4347 33.7406 74.6414 33.5111 73.9128C33.2813 73.1843 32.6074 72.6876 31.8436 72.6837C25.8953 72.6533 19.2976 72.5911 19.2976 72.5911C18.8316 72.5837 18.3969 72.3994 18.0729 72.072C17.7455 71.741 17.5651 71.301 17.5651 70.8332V47.4012C17.5651 46.4319 18.3537 45.6433 19.3229 45.6433C20.2922 45.6433 21.0808 46.4319 21.0808 47.4012V67.349C21.0808 68.3143 21.8591 69.0989 22.8242 69.1069C22.8242 69.1069 30.1258 69.1594 32.188 69.1694H32.1967C32.954 69.1694 33.6267 68.6841 33.8653 67.9646C34.1047 67.2423 33.8521 66.448 33.2397 65.9966L32.424 65.3952C32.4207 65.3927 32.4214 65.3931 32.4228 65.3941C32.0412 65.1118 31.7884 64.7037 31.717 64.2322C31.6469 63.769 31.7617 63.3055 32.0428 62.9246C32.2124 62.6938 32.4182 62.5204 32.6696 62.3967C32.9148 62.2763 33.1875 62.2126 33.458 62.2126C33.8338 62.2126 34.1926 62.3311 34.4979 62.5568L43.9304 69.511C44.3831 69.8453 44.6501 70.3813 44.6448 70.9422C44.6381 71.5063 44.3604 72.037 43.9014 72.3618Z" fill="black"/>
<path d="M43.9578 23.199L53.3909 30.155C54.3035 30.8278 55.3846 31.1834 56.5166 31.1834C57.3265 31.1834 58.1363 30.9946 58.8588 30.6372C59.6206 30.2603 60.262 29.7221 60.7635 29.0395C61.5999 27.9052 61.9443 26.5135 61.7339 25.1241C61.689 24.8237 61.6193 24.5309 61.5261 24.2479C62.1378 24.2517 65.0804 24.273 65.378 24.2751V42.4811C65.378 45.3889 67.7437 47.7546 70.6515 47.7546C73.5593 47.7546 75.925 45.3889 75.925 42.4811V19.0473C75.925 17.647 75.3839 16.3301 74.4015 15.3385C73.4213 14.3456 72.1098 13.7898 70.7085 13.774C70.7018 13.7738 70.6951 13.7738 70.6884 13.7738L70.6865 13.774C69.5972 13.7631 66.2207 13.7311 61.7047 13.7026C61.7657 13.498 61.8147 13.2885 61.8513 13.0747C62.0882 11.6866 61.7717 10.2893 60.9585 9.1379C59.9701 7.74359 58.3595 6.91125 56.6502 6.91125C55.5553 6.91125 54.5029 7.24682 53.608 7.88122L44.044 14.6492C42.6662 15.6211 41.8326 17.2109 41.8143 18.9042C41.7983 20.5914 42.5995 22.197 43.9578 23.199ZM46.0727 17.5205L55.6398 10.7502C55.9425 10.5357 56.2823 10.4269 56.6502 10.4269C57.2217 10.4269 57.7599 10.7052 58.0887 11.1687C58.3634 11.5577 58.4661 12.0123 58.3859 12.4825C58.3068 12.9447 58.0517 13.3491 57.6685 13.6205L57.1247 14.0053C56.5012 14.4467 56.234 15.2402 56.4637 15.9688C56.6935 16.6974 57.3674 17.1942 58.1314 17.1981C64.3783 17.2295 69.2936 17.2759 70.6689 17.2897H70.6767C71.1425 17.297 71.5765 17.4813 71.8997 17.8089C71.9008 17.81 71.902 17.8112 71.9033 17.8124C72.2295 18.1413 72.4093 18.5799 72.4093 19.0475V42.4813C72.4093 43.4506 71.6208 44.2391 70.6515 44.2391C69.6822 44.2391 68.8937 43.4506 68.8937 42.4813V22.5317C68.8937 21.567 68.1162 20.7826 67.1517 20.7739C66.3183 20.7665 59.8498 20.7215 57.7868 20.7116C57.7838 20.7116 57.7812 20.7116 57.7782 20.7116C57.021 20.7116 56.3482 21.197 56.1097 21.9164C55.8703 22.6386 56.1227 23.4329 56.7351 23.8843C56.7351 23.8843 57.5601 24.4931 57.5699 24.5001C57.9443 24.7792 58.1883 25.1853 58.2576 25.648C58.3277 26.1117 58.2129 26.5752 57.9322 26.956C57.7654 27.1829 57.5527 27.3613 57.3001 27.4865C57.0598 27.6053 56.7889 27.6681 56.5168 27.6681C56.1406 27.6681 55.7808 27.5496 55.4771 27.3258L46.0449 20.3703C45.5919 20.0361 45.3245 19.5007 45.33 18.9403C45.336 18.3749 45.6128 17.8448 46.0727 17.5205Z" fill="black"/>
<path d="M36.6138 36.6134C37.941 35.2862 38.6723 33.5213 38.6723 31.6424V7.03278C38.6723 5.15366 37.941 3.3888 36.6138 2.06164C35.2867 0.732546 33.5201 0.00146484 31.6409 0.00146484H7.03132C5.15396 0.00146484 3.38734 0.732546 2.06018 2.06164C0.733015 3.38863 0.00175783 5.15349 0 7.03278V31.6424C0.00175783 33.5213 0.733015 35.2862 2.06018 36.6134C3.38734 37.9425 5.15396 38.6737 7.03132 38.6737H31.6409C33.5201 38.6737 35.2867 37.9423 36.6138 36.6134ZM3.51566 31.6424V7.03278C3.51917 5.09724 5.09771 3.52064 7.03132 3.51712H31.6409C33.5763 3.52064 35.1548 5.09724 35.1583 7.03278V31.6424C35.1548 33.5778 33.5763 35.1544 31.6409 35.1581H7.03132C5.09771 35.1544 3.51917 33.5776 3.51566 31.6424Z" fill="black"/>
<path d="M83.0288 84.9186C83.9996 84.9186 84.7866 84.1316 84.7866 83.1608C84.7866 82.19 83.9996 81.403 83.0288 81.403C82.058 81.403 81.271 82.19 81.271 83.1608C81.271 84.1316 82.058 84.9186 83.0288 84.9186Z" fill="black"/>
<path d="M70.6639 51.3264C59.9849 51.3264 51.3278 59.9836 51.3278 70.6625C51.3278 81.3415 59.9849 89.9987 70.6639 89.9987C72.8584 89.9987 74.9664 89.6297 76.9325 88.9561C77.3772 88.8049 77.7346 88.4852 77.9402 88.0631C78.1477 87.6414 78.1732 87.1665 78.0246 86.7201C77.5787 85.3803 75.9776 85.5663 75.7931 85.6296C74.1843 86.1808 72.4593 86.4828 70.6637 86.4828C61.9262 86.4828 54.8432 79.3998 54.8432 70.6624C54.8432 61.9249 61.9262 54.8419 70.6637 54.8419C79.4012 54.8419 86.4842 61.9249 86.4842 70.6624C86.4842 72.5158 86.1637 74.2942 85.578 75.9469C85.4198 76.3899 85.4427 76.8675 85.6431 77.2911C85.8452 77.7146 86.1892 78.0697 86.6415 78.1929C87.8254 78.5156 88.6407 77.8264 88.8903 77.1266C89.6073 75.1051 89.9998 72.9296 89.9998 70.6622C90 59.9835 81.3429 51.3264 70.6639 51.3264Z" fill="black"/>
</g>
<defs>
<clipPath id="clip0_1_496">
<rect width="90" height="90" fill="white"/>
</clipPath>
</defs>
</svg>
