<svg width="166" height="46" viewBox="0 0 166 46" fill="none" xmlns="http://www.w3.org/2000/svg">
<path d="M45.7812 37V9.36364H57.7102C59.7614 9.36364 61.5561 9.73698 63.0945 10.4837C64.6328 11.2303 65.8293 12.3054 66.684 13.7088C67.5386 15.1122 67.9659 16.7945 67.9659 18.7557C67.9659 20.7348 67.5251 22.4036 66.6435 23.7621C65.7708 25.1205 64.5429 26.1461 62.9595 26.8388C61.3852 27.5315 59.5455 27.8778 57.4403 27.8778H50.3153V22.0483H55.929C56.8106 22.0483 57.5618 21.9403 58.1825 21.7244C58.8123 21.4995 59.2936 21.1442 59.6264 20.6584C59.9683 20.1726 60.1392 19.5384 60.1392 18.7557C60.1392 17.964 59.9683 17.3208 59.6264 16.826C59.2936 16.3222 58.8123 15.9534 58.1825 15.7195C57.5618 15.4766 56.8106 15.3551 55.929 15.3551H53.2841V37H45.7812ZM61.9744 24.3153L68.8835 37H60.733L53.9858 24.3153H61.9744ZM67.7441 37V9.36364H87.6617V15.4091H75.2469V20.1591H86.6361V26.2045H75.2469V30.9545H87.6077V37H67.7441ZM87.9627 37V9.36364H95.4656V20.5369H95.8434L104.156 9.36364H112.9L103.562 21.6705L113.116 37H104.156L97.9485 26.6364L95.4656 29.875V37H87.9627ZM136.735 23.1818C136.735 26.2585 136.137 28.8539 134.941 30.968C133.744 33.0732 132.129 34.67 130.096 35.7585C128.063 36.8381 125.796 37.3778 123.295 37.3778C120.776 37.3778 118.5 36.8336 116.467 35.745C114.443 34.6475 112.832 33.0462 111.636 30.9411C110.448 28.8269 109.855 26.2405 109.855 23.1818C109.855 20.1051 110.448 17.5142 111.636 15.4091C112.832 13.295 114.443 11.6982 116.467 10.6186C118.5 9.53007 120.776 8.98579 123.295 8.98579C125.796 8.98579 128.063 9.53007 130.096 10.6186C132.129 11.6982 133.744 13.295 134.941 15.4091C136.137 17.5142 136.735 20.1051 136.735 23.1818ZM129.017 23.1818C129.017 21.5265 128.796 20.1321 128.355 18.9986C127.924 17.8561 127.28 16.9924 126.426 16.4077C125.58 15.8139 124.537 15.517 123.295 15.517C122.054 15.517 121.006 15.8139 120.151 16.4077C119.305 16.9924 118.662 17.8561 118.221 18.9986C117.789 20.1321 117.573 21.5265 117.573 23.1818C117.573 24.8371 117.789 26.236 118.221 27.3786C118.662 28.5121 119.305 29.3757 120.151 29.9695C121.006 30.5542 122.054 30.8466 123.295 30.8466C124.537 30.8466 125.58 30.5542 126.426 29.9695C127.28 29.3757 127.924 28.5121 128.355 27.3786C128.796 26.236 129.017 24.8371 129.017 23.1818ZM163.56 23.1818C163.56 26.2585 162.961 28.8539 161.765 30.968C160.568 33.0732 158.953 34.67 156.92 35.7585C154.887 36.8381 152.62 37.3778 150.119 37.3778C147.6 37.3778 145.324 36.8336 143.291 35.745C141.267 34.6475 139.657 33.0462 138.46 30.9411C137.273 28.8269 136.679 26.2405 136.679 23.1818C136.679 20.1051 137.273 17.5142 138.46 15.4091C139.657 13.295 141.267 11.6982 143.291 10.6186C145.324 9.53007 147.6 8.98579 150.119 8.98579C152.62 8.98579 154.887 9.53007 156.92 10.6186C158.953 11.6982 160.568 13.295 161.765 15.4091C162.961 17.5142 163.56 20.1051 163.56 23.1818ZM155.841 23.1818C155.841 21.5265 155.62 20.1321 155.18 18.9986C154.748 17.8561 154.105 16.9924 153.25 16.4077C152.404 15.8139 151.361 15.517 150.119 15.517C148.878 15.517 147.83 15.8139 146.975 16.4077C146.129 16.9924 145.486 17.8561 145.045 18.9986C144.614 20.1321 144.398 21.5265 144.398 23.1818C144.398 24.8371 144.614 26.236 145.045 27.3786C145.486 28.5121 146.129 29.3757 146.975 29.9695C147.83 30.5542 148.878 30.8466 150.119 30.8466C151.361 30.8466 152.404 30.5542 153.25 29.9695C154.105 29.3757 154.748 28.5121 155.18 27.3786C155.62 26.236 155.841 24.8371 155.841 23.1818Z" fill="black"/>
<circle cx="20.5" cy="22.5" r="20.5" fill="black"/>
<path d="M38 18.3355C38 12.6452 30.9289 8 22.2669 8H4L19.851 25.5355L22.6205 28.6323L31.0468 38H36.5269L27.5113 28.0516C33.6984 26.6194 38 22.7871 38 18.3355ZM12 11.5C19.1742 12.9032 33.3449 14.3484 33.3449 18.3355C33.3449 21.6645 29.8683 24.4903 25.1543 25.3032L12 11.5Z" fill="white"/>
</svg>
