<svg width="105" height="105" viewBox="0 0 105 105" fill="none" xmlns="http://www.w3.org/2000/svg">
<path d="M52.5 105C81.4949 105 105 81.4949 105 52.5C105 23.505 81.4949 0 52.5 0C23.505 0 0 23.505 0 52.5C0 81.4949 23.505 105 52.5 105Z" fill="#FFDA24"/>
<path d="M105 52.5C105 81.4939 81.4939 105 52.5 105C23.5061 105 0 81.4939 0 52.5C0 50.4185 0.120996 48.3656 0.356836 46.3477C3.40225 72.4418 25.5876 92.6953 52.5 92.6953C79.4124 92.6953 101.598 72.4418 104.643 46.3477C104.879 48.3656 105 50.4185 105 52.5Z" fill="#FFC024"/>
<path d="M73.3052 62.776C73.1268 65.3395 66.9129 74.2091 52.2949 74.2091C37.677 74.2091 31.4651 65.3395 31.2847 62.776C31.1247 60.475 32.7038 59.5071 34.6418 59.9029C36.5777 60.2987 41.3458 64.7755 52.2929 64.7755C63.2399 64.7755 68.008 60.2987 69.944 59.9008C71.8799 59.505 73.4631 60.4709 73.3011 62.774L73.3052 62.776Z" fill="#473535"/>
<path d="M70.8237 48.3639C77.7474 48.3639 83.3601 42.7511 83.3601 35.8274C83.3601 28.9038 77.7474 23.291 70.8237 23.291C63.9 23.291 58.2873 28.9038 58.2873 35.8274C58.2873 42.7511 63.9 48.3639 70.8237 48.3639Z" fill="white"/>
<path d="M70.8237 43.9687C75.3202 43.9687 78.9653 40.3236 78.9653 35.8271C78.9653 31.3307 75.3202 27.6855 70.8237 27.6855C66.3273 27.6855 62.6821 31.3307 62.6821 35.8271C62.6821 40.3236 66.3273 43.9687 70.8237 43.9687Z" fill="#473535"/>
<path d="M74.7653 36.0855C77.0849 36.0855 78.9653 34.2051 78.9653 31.8855C78.9653 29.566 77.0849 27.6855 74.7653 27.6855C72.4457 27.6855 70.5653 29.566 70.5653 31.8855C70.5653 34.2051 72.4457 36.0855 74.7653 36.0855Z" fill="white"/>
<path d="M33.9712 48.3639C40.8949 48.3639 46.5076 42.7511 46.5076 35.8274C46.5076 28.9038 40.8949 23.291 33.9712 23.291C27.0475 23.291 21.4348 28.9038 21.4348 35.8274C21.4348 42.7511 27.0475 48.3639 33.9712 48.3639Z" fill="white"/>
<path d="M33.9712 43.9687C38.4677 43.9687 42.1128 40.3236 42.1128 35.8271C42.1128 31.3307 38.4677 27.6855 33.9712 27.6855C29.4747 27.6855 25.8296 31.3307 25.8296 35.8271C25.8296 40.3236 29.4747 43.9687 33.9712 43.9687Z" fill="#473535"/>
<path d="M37.9128 36.0855C40.2324 36.0855 42.1128 34.2051 42.1128 31.8855C42.1128 29.566 40.2324 27.6855 37.9128 27.6855C35.5932 27.6855 33.7128 29.566 33.7128 31.8855C33.7128 34.2051 35.5932 36.0855 37.9128 36.0855Z" fill="white"/>
</svg>
