<svg width="58" height="58" viewBox="0 0 58 58" fill="none" xmlns="http://www.w3.org/2000/svg">
<path fill-rule="evenodd" clip-rule="evenodd" d="M27.8025 0.531188C27.896 0.216903 28.1857 0 28.5142 0C28.8428 0 29.1325 0.216903 29.226 0.531188C29.226 0.531188 30.5286 4.89762 31.9248 9.58094C34.1495 17.0423 39.9862 22.879 47.4475 25.1037C52.1309 26.4999 56.4973 27.8025 56.4973 27.8025C56.8116 27.896 57.0285 28.1857 57.0285 28.5143C57.0285 28.8428 56.8116 29.1325 56.4973 29.226C56.4973 29.226 52.1309 30.5286 47.4475 31.9248C39.9862 34.1496 34.1495 39.9862 31.9248 47.4476C30.5286 52.1309 29.226 56.4973 29.226 56.4973C29.1325 56.8116 28.8428 57.0285 28.5142 57.0285C28.1857 57.0285 27.896 56.8116 27.8025 56.4973C27.8025 56.4973 26.4999 52.1309 25.1037 47.4476C22.8789 39.9862 17.0423 34.1496 9.58092 31.9248C4.89761 30.5286 0.531188 29.226 0.531188 29.226C0.216883 29.1325 0 28.8428 0 28.5143C0 28.1857 0.216883 27.896 0.531188 27.8025C0.531188 27.8025 4.89761 26.4999 9.58092 25.1037C17.0423 22.879 22.8789 17.0423 25.1037 9.58094C26.4999 4.89762 27.8025 0.531188 27.8025 0.531188Z" fill="#FFB44B"/>
</svg>
