<svg width="64" height="61" viewBox="0 0 64 61" fill="none" xmlns="http://www.w3.org/2000/svg">
<path fill-rule="evenodd" clip-rule="evenodd" d="M33.2985 3.02832C33.392 2.71403 33.6816 2.49713 34.0102 2.49713C34.3388 2.49713 34.6284 2.71403 34.7219 3.02832C34.7219 3.02832 36.0246 7.39475 37.4208 12.0781C39.6455 19.5395 45.4822 25.3761 52.9435 27.6008C57.6268 28.997 61.9933 30.2997 61.9933 30.2997C62.3076 30.3932 62.5244 30.6828 62.5244 31.0114C62.5244 31.34 62.3076 31.6296 61.9933 31.7231C61.9933 31.7231 57.6268 33.0258 52.9435 34.4219C45.4822 36.6467 39.6455 42.4833 37.4208 49.9447C36.0246 54.628 34.7219 58.9944 34.7219 58.9944C34.6284 59.3087 34.3388 59.5256 34.0102 59.5256C33.6816 59.5256 33.392 59.3087 33.2985 58.9944C33.2985 58.9944 31.9958 54.628 30.5997 49.9447C28.3749 42.4833 22.5383 36.6467 15.0769 34.4219C10.3936 33.0258 6.02716 31.7231 6.02716 31.7231C5.71285 31.6296 5.49597 31.34 5.49597 31.0114C5.49597 30.6828 5.71285 30.3932 6.02716 30.2997C6.02716 30.2997 10.3936 28.997 15.0769 27.6008C22.5383 25.3761 28.3749 19.5395 30.5997 12.0781C31.9958 7.39475 33.2985 3.02832 33.2985 3.02832Z" fill="black"/>
<path fill-rule="evenodd" clip-rule="evenodd" d="M29.8297 2.55951C29.9232 2.24522 30.2129 2.02832 30.5415 2.02832C30.87 2.02832 31.1597 2.24522 31.2532 2.55951C31.2532 2.55951 32.5558 6.92594 33.952 11.6093C36.1768 19.0706 42.0134 24.9073 49.4748 27.132C54.1581 28.5282 58.5245 29.8308 58.5245 29.8308C58.8388 29.9243 59.0557 30.214 59.0557 30.5426C59.0557 30.8711 58.8388 31.1608 58.5245 31.2543C58.5245 31.2543 54.1581 32.5569 49.4748 33.9531C42.0134 36.1779 36.1768 42.0145 33.952 49.4759C32.5558 54.1592 31.2532 58.5256 31.2532 58.5256C31.1597 58.8399 30.87 59.0568 30.5415 59.0568C30.2129 59.0568 29.9232 58.8399 29.8297 58.5256C29.8297 58.5256 28.5271 54.1592 27.1309 49.4759C24.9062 42.0145 19.0695 36.1779 11.6081 33.9531C6.92484 32.5569 2.55841 31.2543 2.55841 31.2543C2.2441 31.1608 2.02722 30.8711 2.02722 30.5426C2.02722 30.214 2.2441 29.9243 2.55841 29.8308C2.55841 29.8308 6.92484 28.5282 11.6081 27.132C19.0695 24.9073 24.9062 19.0706 27.1309 11.6093C28.5271 6.92594 29.8297 2.55951 29.8297 2.55951Z" fill="#FFB44B"/>
</svg>
