<svg width="63" height="61" viewBox="0 0 63 61" fill="none" xmlns="http://www.w3.org/2000/svg">
<path fill-rule="evenodd" clip-rule="evenodd" d="M29.2985 2.02832C29.392 1.71403 29.6816 1.49713 30.0102 1.49713C30.3388 1.49713 30.6284 1.71403 30.7219 2.02832C30.7219 2.02832 32.0246 6.39475 33.4208 11.0781C35.6455 18.5395 41.4822 24.3761 48.9435 26.6008C53.6268 27.997 57.9933 29.2997 57.9933 29.2997C58.3076 29.3932 58.5244 29.6828 58.5244 30.0114C58.5244 30.34 58.3076 30.6296 57.9933 30.7231C57.9933 30.7231 53.6268 32.0258 48.9435 33.4219C41.4822 35.6467 35.6455 41.4833 33.4208 48.9447C32.0246 53.628 30.7219 57.9944 30.7219 57.9944C30.6284 58.3087 30.3388 58.5256 30.0102 58.5256C29.6816 58.5256 29.392 58.3087 29.2985 57.9944C29.2985 57.9944 27.9958 53.628 26.5997 48.9447C24.3749 41.4833 18.5383 35.6467 11.0769 33.4219C6.39359 32.0258 2.02716 30.7231 2.02716 30.7231C1.71285 30.6296 1.49597 30.34 1.49597 30.0114C1.49597 29.6828 1.71285 29.3932 2.02716 29.2997C2.02716 29.2997 6.39359 27.997 11.0769 26.6008C18.5383 24.3761 24.3749 18.5395 26.5997 11.0781C27.9958 6.39475 29.2985 2.02832 29.2985 2.02832Z" fill="black"/>
<path fill-rule="evenodd" clip-rule="evenodd" d="M32.8297 3.55951C32.9232 3.24522 33.2129 3.02832 33.5415 3.02832C33.87 3.02832 34.1597 3.24522 34.2532 3.55951C34.2532 3.55951 35.5558 7.92594 36.952 12.6093C39.1768 20.0706 45.0134 25.9073 52.4748 28.132C57.1581 29.5282 61.5245 30.8308 61.5245 30.8308C61.8388 30.9243 62.0557 31.214 62.0557 31.5426C62.0557 31.8711 61.8388 32.1608 61.5245 32.2543C61.5245 32.2543 57.1581 33.5569 52.4748 34.9531C45.0134 37.1779 39.1768 43.0145 36.952 50.4759C35.5558 55.1592 34.2532 59.5256 34.2532 59.5256C34.1597 59.8399 33.87 60.0568 33.5415 60.0568C33.2129 60.0568 32.9232 59.8399 32.8297 59.5256C32.8297 59.5256 31.5271 55.1592 30.1309 50.4759C27.9062 43.0145 22.0695 37.1779 14.6081 34.9531C9.92484 33.5569 5.55841 32.2543 5.55841 32.2543C5.2441 32.1608 5.02722 31.8711 5.02722 31.5426C5.02722 31.214 5.2441 30.9243 5.55841 30.8308C5.55841 30.8308 9.92484 29.5282 14.6081 28.132C22.0695 25.9073 27.9062 20.0706 30.1309 12.6093C31.5271 7.92594 32.8297 3.55951 32.8297 3.55951Z" fill="#7671FF"/>
</svg>
