<svg width="29" height="29" viewBox="0 0 29 29" fill="none" xmlns="http://www.w3.org/2000/svg">
<path d="M12.4053 1.72954C12.7844 2.51813 13.2959 3.58222 13.8251 4.68331C15.5847 8.34394 19.0713 10.8709 23.0978 11.4035C24.3089 11.5636 25.4794 11.7185 26.3468 11.8333C26.7589 11.8879 27.1026 11.9332 27.3499 11.966C27.1251 12.0741 26.8128 12.225 26.438 12.4052C25.6494 12.7843 24.5854 13.2958 23.4843 13.825C19.8235 15.5845 17.2967 19.0711 16.7641 23.0977C16.6039 24.3089 16.449 25.4793 16.3342 26.3467C16.2797 26.7589 16.2334 27.1027 16.2007 27.35C16.0926 27.1252 15.9425 26.8126 15.7624 26.438C15.3833 25.6494 14.8717 24.5853 14.3426 23.4842C12.5831 19.8235 9.09633 17.2967 5.06986 16.764C3.85877 16.6039 2.6883 16.449 1.82089 16.3342C1.40773 16.2795 1.06312 16.2337 0.815639 16.2009C1.04061 16.0927 1.35409 15.9428 1.72962 15.7623C2.51821 15.3832 3.58226 14.8717 4.68339 14.3425C8.34401 12.583 10.8709 9.09626 11.4036 5.06979C11.5637 3.85863 11.7186 2.68824 11.8334 1.82081C11.8881 1.40774 11.933 1.06318 11.9657 0.815718C12.0739 1.0407 12.2247 1.35393 12.4053 1.72954Z" fill="white" stroke="black"/>
</svg>
