<svg width="73" height="68" viewBox="0 0 73 68" fill="none" xmlns="http://www.w3.org/2000/svg">
<path d="M10.5508 31.6523C10.5508 31.6523 29.3022 26.0918 32.0801 11.6914C32.0801 11.6914 38.3535 31.4706 55.6055 31.3672C55.6055 31.3672 33.3633 34.7891 32.0801 57.3164C32.0801 57.3164 33.2207 34.2188 10.5508 31.6523Z" fill="#FFDA8F"/>
<path d="M2.13867 9.68264C2.13867 9.68264 8.78481 7.71178 9.76931 2.60791C9.76931 2.60791 11.9928 9.61819 18.1074 9.58155C18.1074 9.58155 10.2241 10.7943 9.76931 18.7787C9.76931 18.7788 10.1735 10.5923 2.13867 9.68264Z" fill="#FFDA8F"/>
<path d="M47.7637 52.8352C47.7637 52.8352 57.0802 50.0725 58.4602 42.9179C58.4602 42.9179 61.5771 52.7448 70.1484 52.6935C70.1484 52.6935 59.0978 54.3936 58.4602 65.586C58.4602 65.586 59.0269 54.1103 47.7637 52.8352Z" fill="#FFDA8F"/>
<path d="M45.9102 54.1797C52.1996 54.1797 57.3164 59.2965 57.3164 65.5859C57.3164 66.3733 57.9549 67.0117 58.7422 67.0117C59.5295 67.0117 60.168 66.3733 60.168 65.5859C60.168 59.2965 65.2848 54.1797 71.5742 54.1797C72.3615 54.1797 73 53.5412 73 52.7539C73 51.9666 72.3615 51.3281 71.5742 51.3281C65.2848 51.3281 60.168 46.2113 60.168 39.9219C60.168 39.1346 59.5295 38.4961 58.7422 38.4961C57.9549 38.4961 57.3164 39.1346 57.3164 39.9219C57.3164 46.2113 52.1996 51.3281 45.9102 51.3281C45.1228 51.3281 44.4844 51.9666 44.4844 52.7539C44.4844 53.5412 45.1228 54.1797 45.9102 54.1797ZM58.7422 46.1341C60.1417 49.0134 62.4826 51.3542 65.3619 52.7539C62.4827 54.1535 60.1419 56.4943 58.7422 59.3737C57.3426 56.4944 55.0018 54.1536 52.1224 52.7539C55.0018 51.3544 57.3426 49.0135 58.7422 46.1341Z" fill="black"/>
<path d="M1.42578 11.4062C5.35666 11.4062 8.55469 14.6043 8.55469 18.5352C8.55469 19.3225 9.19301 19.9609 9.98047 19.9609C10.7679 19.9609 11.4062 19.3225 11.4062 18.5352C11.4062 14.6043 14.6043 11.4062 18.5352 11.4062C19.3226 11.4062 19.9609 10.7678 19.9609 9.98047C19.9609 9.19315 19.3226 8.55469 18.5352 8.55469C14.6043 8.55469 11.4062 5.35666 11.4062 1.42578C11.4062 0.638465 10.7679 0 9.98047 0C9.19301 0 8.55469 0.638465 8.55469 1.42578C8.55469 5.35666 5.35666 8.55469 1.42578 8.55469C0.638322 8.55469 0 9.19315 0 9.98047C0 10.7678 0.638322 11.4062 1.42578 11.4062ZM9.98047 6.56202C10.8235 7.96071 12.0002 9.13755 13.3988 9.98047C12.0001 10.8234 10.8234 12.0002 9.98047 13.3989C9.1374 12.0002 7.96071 10.8234 6.56216 9.98047C7.96071 9.13755 9.1374 7.96071 9.98047 6.56202Z" fill="black"/>
<path d="M39.7793 40.3496C40.5667 40.3496 41.2051 39.7113 41.2051 38.9238C41.2051 38.1364 40.5667 37.498 39.7793 37.498C38.9919 37.498 38.3535 38.1364 38.3535 38.9238C38.3535 39.7113 38.9919 40.3496 39.7793 40.3496Z" fill="black"/>
<path d="M43.583 35.6722C43.9846 36.3493 44.8596 36.5726 45.5367 36.1706C49.2606 33.961 53.5311 32.793 57.8867 32.793C58.674 32.793 59.3125 32.1545 59.3125 31.3672C59.3125 30.5799 58.674 29.9414 57.8867 29.9414C44.5217 29.9414 33.6484 19.0681 33.6484 5.70312C33.6484 4.91581 33.0101 4.27734 32.2227 4.27734C31.4352 4.27734 30.7969 4.91581 30.7969 5.70312C30.7969 19.0681 19.9236 29.9414 6.55859 29.9414C5.77113 29.9414 5.13281 30.5799 5.13281 31.3672C5.13281 32.1545 5.77113 32.793 6.55859 32.793C19.9236 32.793 30.7969 43.6663 30.7969 57.0312C30.7969 57.8186 31.4352 58.457 32.2227 58.457C33.0101 58.457 33.6484 57.8186 33.6484 57.0312C33.6484 52.6756 34.8164 48.4051 37.0261 44.6813C37.4279 44.004 37.2048 43.1293 36.5277 42.7275C35.85 42.3253 34.9756 42.5489 34.5739 43.226C33.6095 44.8511 32.8228 46.5687 32.2217 48.349C29.5194 40.3823 23.205 34.0688 15.238 31.3672C23.2059 28.6653 29.5208 22.3504 32.2227 14.3826C34.9242 22.3495 41.2377 28.6639 49.2043 31.3662C47.4242 31.9673 45.7066 32.754 44.0813 33.7184C43.4043 34.1204 43.1811 34.9949 43.583 35.6722Z" fill="black"/>
</svg>
