<svg width="47" height="41" viewBox="0 0 47 41" fill="none" xmlns="http://www.w3.org/2000/svg">
<path d="M30.2998 32.0481L18.8108 7.61372L31.7584 1.5258L33.402 5.02142L23.6994 9.58355L26.9867 16.5748L36.6893 12.0127L38.3165 15.4733L28.6139 20.0354L33.5448 30.5223L30.2998 32.0481ZM36.6893 12.0127L33.402 5.02142L36.647 3.49562L39.9343 10.4869L36.6893 12.0127Z" fill="#E5E3FF"/>
<path d="M11.489 40.8929L0 16.4585L3.46066 14.8313L6.74793 21.8226L10.2435 20.1789L11.8872 23.6745L15.3828 22.0309L17.01 25.4916L13.5144 27.1352L11.8872 23.6745L8.39157 25.3182L14.9497 39.2657L11.489 40.8929ZM25.4365 34.3348L22.1493 27.3436L18.6536 28.9872L17.01 25.4916L20.5056 23.8479L13.9475 9.90042L17.4082 8.27323L28.8972 32.7076L25.4365 34.3348Z" fill="#E5E3FF"/>
</svg>
